<svg width="20" height="20" viewBox="0 0 20 20" fill="none" xmlns="http://www.w3.org/2000/svg">
<rect x="0.5" y="0.5" width="19" height="19" rx="4.5" stroke="#9F9F9F"/>
<path d="M7.65263 15.7675C7.60474 15.7675 7.55768 15.755 7.51612 15.7312C7.47456 15.7074 7.43994 15.6732 7.4157 15.6319C6.38881 13.8824 3.65241 10.159 3.62488 10.1216C3.58578 10.0685 3.56711 10.003 3.57229 9.93726C3.57746 9.87149 3.60614 9.80977 3.65306 9.7634L4.49422 8.93222C4.53992 8.88706 4.6 8.85934 4.66401 8.85389C4.72803 8.84844 4.79193 8.8656 4.8446 8.90238L7.59535 10.8232C9.42414 8.47381 11.1236 6.85246 12.2407 5.89713C13.4927 4.82617 14.2888 4.34494 14.322 4.32488C14.3648 4.29925 14.4136 4.28571 14.4634 4.28571H15.8242C15.8799 4.2857 15.9343 4.30262 15.9801 4.33422C16.026 4.36583 16.0612 4.41063 16.081 4.46268C16.1008 4.51473 16.1043 4.57158 16.0911 4.62568C16.0779 4.67978 16.0485 4.72859 16.0069 4.76562C13.9896 6.56233 11.8922 9.41708 10.488 11.4955C8.96155 13.7546 7.90188 15.6103 7.89136 15.6288C7.86751 15.6706 7.83306 15.7055 7.79147 15.7298C7.74989 15.7542 7.70263 15.7672 7.65444 15.7675L7.65263 15.7675Z" fill="#9F9F9F"/>
</svg>
